<svg width="407" height="78" viewBox="0 0 407 78" fill="none" xmlns="http://www.w3.org/2000/svg">
<path fill-rule="evenodd" clip-rule="evenodd" d="M39.8742 12.9351C39.9802 12.3207 40.0354 11.6889 40.0354 11.0442C40.0354 4.94468 35.0907 0 28.9911 0C23.1228 0 18.3235 4.57683 17.968 10.3556L17.9469 10.354L17.031 22.0885H11.0442V28.9911H16.4923L15.5232 41.4064L15.531 41.4159C15.531 41.4159 15.2603 53.4956 10.7736 53.8407C6.28687 54.1858 6.63201 49.6991 6.63201 49.6991L0.262834 49.3639C0.0907525 50.1384 0 50.9436 0 51.7699C0 57.8695 4.94468 62.8142 11.0442 62.8142C17.08 62.8142 21.9849 57.9724 22.0869 51.961L23.8797 28.9911H37.9646V22.0885H24.4184L24.4851 21.2345C24.4144 18.8196 24.36 8.61941 28.4704 8.30289C33.1338 7.94379 32.7751 12.6121 32.7751 12.6121L39.8742 12.9351ZM68.8653 28.121C68.9713 27.5066 69.0266 26.8748 69.0266 26.2301C69.0266 20.1305 64.0819 15.1858 57.9823 15.1858C52.114 15.1858 47.3147 19.7627 46.9592 25.5415L46.9381 25.5398L45.8605 39.3451H32.4425V46.2478H45.3218L44.5144 56.5923L44.5221 56.6018C44.5221 56.6018 44.2515 68.6814 39.7648 69.0265C35.278 69.3717 35.6232 64.885 35.6232 64.885L29.254 64.5497C29.0819 65.3243 28.9911 66.1294 28.9911 66.9557C28.9911 73.0553 33.9358 78 40.0354 78C46.0711 78 50.976 73.1583 51.078 67.1469L52.7092 46.2478H59.3628V39.3451H53.248L53.4762 36.4203C53.4055 34.0054 53.3511 23.8052 57.4615 23.4887C62.125 23.1296 61.7662 27.798 61.7662 27.798L68.8653 28.121ZM98.8212 21.88V61H107.641V45.82H121.201V38.38H107.641V29.32H123.481V21.88H98.8212ZM135.891 60.7C137.731 61.38 139.711 61.72 141.831 61.72C143.631 61.72 145.451 61.42 147.291 60.82C149.171 60.22 150.871 59.4 152.391 58.36L149.451 53.02C147.291 54.34 145.151 55 143.031 55C141.031 55 139.331 54.5 137.931 53.5C136.571 52.46 135.691 50.86 135.291 48.7H153.111C153.191 48.34 153.271 47.8 153.351 47.08C153.431 46.36 153.471 45.6 153.471 44.8C153.471 42.76 153.211 40.88 152.691 39.16C152.171 37.4 151.371 35.88 150.291 34.6C149.251 33.32 147.931 32.32 146.331 31.6C144.771 30.88 142.931 30.52 140.811 30.52C139.011 30.52 137.271 30.88 135.591 31.6C133.911 32.32 132.411 33.36 131.091 34.72C129.811 36.04 128.771 37.68 127.971 39.64C127.171 41.56 126.771 43.72 126.771 46.12C126.771 48.6 127.151 50.8 127.911 52.72C128.671 54.64 129.731 56.28 131.091 57.64C132.451 58.96 134.051 59.98 135.891 60.7ZM145.971 42.88H135.231C135.551 40.96 136.231 39.54 137.271 38.62C138.351 37.7 139.591 37.24 140.991 37.24C142.791 37.24 144.071 37.76 144.831 38.8C145.591 39.84 145.971 41.2 145.971 42.88ZM162.701 61C163.821 61.48 165.061 61.72 166.421 61.72C168.101 61.72 169.641 61.38 171.041 60.7C172.441 59.98 173.781 59.06 175.061 57.94H175.301L175.901 61H183.101V43.96C183.101 39.36 182.081 35.98 180.041 33.82C178.041 31.62 175.121 30.52 171.281 30.52C168.921 30.52 166.681 30.88 164.561 31.6C162.481 32.32 160.481 33.26 158.561 34.42L161.741 40.24C163.181 39.4 164.521 38.74 165.761 38.26C167.041 37.78 168.321 37.54 169.601 37.54C171.241 37.54 172.401 37.94 173.081 38.74C173.801 39.5 174.201 40.54 174.281 41.86C168.401 42.46 164.141 43.64 161.501 45.4C158.861 47.16 157.541 49.6 157.541 52.72C157.541 54 157.741 55.18 158.141 56.26C158.581 57.34 159.181 58.3 159.941 59.14C160.701 59.94 161.621 60.56 162.701 61ZM172.001 54.22C171.281 54.66 170.421 54.88 169.421 54.88C168.381 54.88 167.541 54.66 166.901 54.22C166.301 53.74 166.001 53.02 166.001 52.06C166.001 50.9 166.601 49.9 167.801 49.06C169.001 48.22 171.161 47.58 174.281 47.14V52.36C173.481 53.16 172.721 53.78 172.001 54.22ZM193.262 60.58C195.342 61.34 197.362 61.72 199.322 61.72C201.322 61.72 203.082 61.48 204.602 61C206.122 60.48 207.402 59.8 208.442 58.96C209.482 58.08 210.262 57.06 210.782 55.9C211.302 54.74 211.562 53.48 211.562 52.12C211.562 50.76 211.322 49.6 210.842 48.64C210.362 47.64 209.722 46.8 208.922 46.12C208.162 45.44 207.302 44.88 206.342 44.44C205.422 43.96 204.482 43.54 203.522 43.18C202.762 42.9 202.022 42.64 201.302 42.4C200.622 42.12 200.002 41.84 199.442 41.56C198.922 41.28 198.502 40.98 198.182 40.66C197.862 40.3 197.702 39.88 197.702 39.4C197.702 37.84 198.822 37.06 201.062 37.06C202.102 37.06 203.142 37.28 204.182 37.72C205.222 38.16 206.282 38.78 207.362 39.58L211.322 34.3C210.042 33.34 208.542 32.48 206.822 31.72C205.102 30.92 203.102 30.52 200.822 30.52C199.102 30.52 197.542 30.76 196.142 31.24C194.742 31.68 193.542 32.3 192.542 33.1C191.542 33.9 190.762 34.88 190.202 36.04C189.682 37.2 189.422 38.46 189.422 39.82C189.422 41.06 189.662 42.16 190.142 43.12C190.622 44.04 191.242 44.86 192.002 45.58C192.762 46.26 193.602 46.84 194.522 47.32C195.442 47.8 196.362 48.22 197.282 48.58C198.042 48.9 198.782 49.2 199.502 49.48C200.222 49.72 200.862 50 201.422 50.32C202.022 50.64 202.482 51 202.802 51.4C203.162 51.76 203.342 52.18 203.342 52.66C203.342 53.46 203.042 54.08 202.442 54.52C201.842 54.96 200.882 55.18 199.562 55.18C198.282 55.18 197.022 54.92 195.782 54.4C194.542 53.88 193.242 53.1 191.882 52.06L187.922 57.58C189.442 58.82 191.222 59.82 193.262 60.58ZM222.712 60.88C224.032 61.44 225.612 61.72 227.452 61.72C228.892 61.72 230.152 61.6 231.232 61.36C232.312 61.12 233.252 60.88 234.052 60.64L232.672 54.22C232.272 54.38 231.812 54.52 231.292 54.64C230.812 54.76 230.332 54.82 229.852 54.82C228.692 54.82 227.752 54.46 227.032 53.74C226.352 52.98 226.012 51.76 226.012 50.08V38.14H233.152V31.24H226.012V23.32H218.692L217.672 31.24L213.112 31.6V38.14H217.192V50.2C217.192 51.92 217.372 53.5 217.732 54.94C218.132 56.34 218.732 57.54 219.532 58.54C220.372 59.54 221.432 60.32 222.712 60.88ZM239.681 21.88V61H248.501V45.82H262.061V38.38H248.501V29.32H264.341V21.88H239.681ZM279.245 31.24H270.425V61H279.245V31.24ZM271.145 25.6C272.105 26.44 273.325 26.86 274.805 26.86C276.325 26.86 277.545 26.44 278.465 25.6C279.425 24.72 279.905 23.6 279.905 22.24C279.905 20.88 279.425 19.78 278.465 18.94C277.545 18.1 276.325 17.68 274.805 17.68C273.325 17.68 272.105 18.1 271.145 18.94C270.185 19.78 269.705 20.88 269.705 22.24C269.705 23.6 270.185 24.72 271.145 25.6ZM294.207 31.24H287.007V61H295.827V40.9C296.787 39.98 297.667 39.28 298.467 38.8C299.267 38.28 300.227 38.02 301.347 38.02C302.627 38.02 303.547 38.42 304.107 39.22C304.707 40.02 305.007 41.5 305.007 43.66V61H313.827V42.52C313.827 38.76 313.087 35.82 311.607 33.7C310.167 31.58 307.827 30.52 304.587 30.52C302.547 30.52 300.767 30.98 299.247 31.9C297.727 32.78 296.327 33.82 295.047 35.02H294.807L294.207 31.24ZM326.923 60.64C328.443 61.36 330.123 61.72 331.963 61.72C333.403 61.72 334.823 61.38 336.223 60.7C337.623 59.98 338.843 59.1 339.883 58.06H340.123L340.723 61H347.923V18.94H339.103V29.08L339.463 33.64C338.423 32.68 337.363 31.92 336.283 31.36C335.203 30.8 333.823 30.52 332.143 30.52C330.583 30.52 329.043 30.88 327.523 31.6C326.043 32.32 324.723 33.36 323.563 34.72C322.443 36.04 321.523 37.66 320.803 39.58C320.123 41.5 319.783 43.68 319.783 46.12C319.783 48.56 320.063 50.74 320.623 52.66C321.223 54.58 322.043 56.22 323.083 57.58C324.163 58.9 325.443 59.92 326.923 60.64ZM336.823 53.92C336.063 54.32 335.203 54.52 334.243 54.52C332.523 54.52 331.183 53.84 330.223 52.48C329.303 51.12 328.843 48.96 328.843 46C328.843 43.16 329.383 41.08 330.463 39.76C331.543 38.4 332.783 37.72 334.183 37.72C334.983 37.72 335.803 37.86 336.643 38.14C337.483 38.42 338.303 38.92 339.103 39.64V51.82C338.383 52.82 337.623 53.52 336.823 53.92ZM363.118 60.7C364.958 61.38 366.938 61.72 369.058 61.72C370.858 61.72 372.678 61.42 374.518 60.82C376.398 60.22 378.098 59.4 379.618 58.36L376.678 53.02C374.518 54.34 372.378 55 370.258 55C368.258 55 366.558 54.5 365.158 53.5C363.798 52.46 362.918 50.86 362.518 48.7H380.338C380.418 48.34 380.498 47.8 380.578 47.08C380.658 46.36 380.698 45.6 380.698 44.8C380.698 42.76 380.438 40.88 379.918 39.16C379.398 37.4 378.598 35.88 377.518 34.6C376.478 33.32 375.158 32.32 373.558 31.6C371.998 30.88 370.158 30.52 368.038 30.52C366.238 30.52 364.498 30.88 362.818 31.6C361.138 32.32 359.638 33.36 358.318 34.72C357.038 36.04 355.998 37.68 355.198 39.64C354.398 41.56 353.998 43.72 353.998 46.12C353.998 48.6 354.378 50.8 355.138 52.72C355.898 54.64 356.958 56.28 358.318 57.64C359.678 58.96 361.278 59.98 363.118 60.7ZM373.198 42.88H362.458C362.778 40.96 363.458 39.54 364.498 38.62C365.578 37.7 366.818 37.24 368.218 37.24C370.018 37.24 371.298 37.76 372.058 38.8C372.818 39.84 373.198 41.2 373.198 42.88ZM393.993 31.24H386.793V61H395.613V43.72C396.413 41.68 397.413 40.26 398.613 39.46C399.853 38.66 401.033 38.26 402.153 38.26C402.793 38.26 403.353 38.3 403.833 38.38C404.313 38.46 404.833 38.58 405.393 38.74L406.833 31.12C406.393 30.92 405.893 30.78 405.333 30.7C404.813 30.58 404.133 30.52 403.293 30.52C401.773 30.52 400.253 31 398.733 31.96C397.213 32.92 395.913 34.42 394.833 36.46H394.593L393.993 31.24Z" fill="black"/>
</svg>
