<svg width="475" height="105" viewBox="0 0 475 105" fill="none" xmlns="http://www.w3.org/2000/svg">
<rect width="466" height="105" rx="20" fill="#6C0543" fill-opacity="0.82"/>
<g filter="url(#filter0_d)">
<rect x="11" y="12" width="80" height="80" rx="25" fill="white"/>
</g>
<path d="M113.811 29.52H142.311V38.16H123.171V46.8H140.871V55.44H123.171V72H113.811V29.52ZM175.477 66.96C174.037 68.8 172.217 70.22 170.017 71.22C167.817 72.22 165.537 72.72 163.177 72.72C160.937 72.72 158.817 72.36 156.817 71.64C154.857 70.92 153.137 69.9 151.657 68.58C150.217 67.22 149.077 65.6 148.237 63.72C147.397 61.84 146.977 59.74 146.977 57.42C146.977 55.1 147.397 53 148.237 51.12C149.077 49.24 150.217 47.64 151.657 46.32C153.137 44.96 154.857 43.92 156.817 43.2C158.817 42.48 160.937 42.12 163.177 42.12C165.257 42.12 167.137 42.48 168.817 43.2C170.537 43.92 171.977 44.96 173.137 46.32C174.337 47.64 175.257 49.24 175.897 51.12C176.537 53 176.857 55.1 176.857 57.42V60.24H155.977C156.337 61.96 157.117 63.34 158.317 64.38C159.517 65.38 160.997 65.88 162.757 65.88C164.237 65.88 165.477 65.56 166.477 64.92C167.517 64.24 168.417 63.38 169.177 62.34L175.477 66.96ZM167.857 54.12C167.897 52.6 167.397 51.3 166.357 50.22C165.317 49.14 163.977 48.6 162.337 48.6C161.337 48.6 160.457 48.76 159.697 49.08C158.937 49.4 158.277 49.82 157.717 50.34C157.197 50.82 156.777 51.4 156.457 52.08C156.177 52.72 156.017 53.4 155.977 54.12H167.857ZM200.63 68.34H200.51C199.51 69.9 198.17 71.02 196.49 71.7C194.85 72.38 193.11 72.72 191.27 72.72C189.91 72.72 188.59 72.52 187.31 72.12C186.07 71.76 184.97 71.2 184.01 70.44C183.05 69.68 182.29 68.74 181.73 67.62C181.17 66.5 180.89 65.2 180.89 63.72C180.89 62.04 181.19 60.62 181.79 59.46C182.43 58.3 183.27 57.34 184.31 56.58C185.39 55.82 186.61 55.24 187.97 54.84C189.33 54.4 190.73 54.08 192.17 53.88C193.65 53.68 195.11 53.56 196.55 53.52C198.03 53.48 199.39 53.46 200.63 53.46C200.63 51.86 200.05 50.6 198.89 49.68C197.77 48.72 196.43 48.24 194.87 48.24C193.39 48.24 192.03 48.56 190.79 49.2C189.59 49.8 188.51 50.64 187.55 51.72L182.75 46.8C184.43 45.24 186.39 44.08 188.63 43.32C190.87 42.52 193.19 42.12 195.59 42.12C198.23 42.12 200.39 42.46 202.07 43.14C203.79 43.78 205.15 44.74 206.15 46.02C207.19 47.3 207.91 48.88 208.31 50.76C208.71 52.6 208.91 54.74 208.91 57.18V72H200.63V68.34ZM198.41 59.22C197.73 59.22 196.87 59.26 195.83 59.34C194.83 59.38 193.85 59.54 192.89 59.82C191.97 60.1 191.17 60.52 190.49 61.08C189.85 61.64 189.53 62.42 189.53 63.42C189.53 64.5 189.99 65.3 190.91 65.82C191.83 66.34 192.79 66.6 193.79 66.6C194.67 66.6 195.51 66.48 196.31 66.24C197.15 66 197.89 65.66 198.53 65.22C199.17 64.78 199.67 64.22 200.03 63.54C200.43 62.86 200.63 62.06 200.63 61.14V59.22H198.41ZM231.057 51.42C229.737 49.78 227.997 48.96 225.837 48.96C225.077 48.96 224.337 49.14 223.617 49.5C222.897 49.86 222.537 50.48 222.537 51.36C222.537 52.08 222.897 52.62 223.617 52.98C224.377 53.3 225.317 53.6 226.437 53.88C227.597 54.12 228.817 54.4 230.097 54.72C231.417 55 232.637 55.46 233.757 56.1C234.917 56.74 235.857 57.62 236.577 58.74C237.337 59.82 237.717 61.28 237.717 63.12C237.717 65 237.297 66.56 236.457 67.8C235.657 69 234.617 69.98 233.337 70.74C232.057 71.46 230.617 71.96 229.017 72.24C227.417 72.56 225.837 72.72 224.277 72.72C222.237 72.72 220.177 72.44 218.097 71.88C216.017 71.28 214.257 70.24 212.817 68.76L218.277 62.7C219.117 63.74 220.037 64.54 221.037 65.1C222.077 65.62 223.277 65.88 224.637 65.88C225.677 65.88 226.617 65.74 227.457 65.46C228.297 65.14 228.717 64.58 228.717 63.78C228.717 63.02 228.337 62.46 227.577 62.1C226.857 61.7 225.917 61.38 224.757 61.14C223.637 60.86 222.417 60.58 221.097 60.3C219.817 59.98 218.597 59.52 217.437 58.92C216.317 58.32 215.377 57.48 214.617 56.4C213.897 55.28 213.537 53.8 213.537 51.96C213.537 50.24 213.877 48.76 214.557 47.52C215.277 46.28 216.197 45.26 217.317 44.46C218.477 43.66 219.797 43.08 221.277 42.72C222.757 42.32 224.257 42.12 225.777 42.12C227.697 42.12 229.637 42.4 231.597 42.96C233.557 43.52 235.217 44.52 236.577 45.96L231.057 51.42ZM262.19 50.04H254.27V59.76C254.27 60.56 254.31 61.3 254.39 61.98C254.47 62.62 254.65 63.18 254.93 63.66C255.21 64.14 255.63 64.52 256.19 64.8C256.79 65.04 257.57 65.16 258.53 65.16C259.01 65.16 259.63 65.12 260.39 65.04C261.19 64.92 261.79 64.68 262.19 64.32V71.82C261.19 72.18 260.15 72.42 259.07 72.54C257.99 72.66 256.93 72.72 255.89 72.72C254.37 72.72 252.97 72.56 251.69 72.24C250.41 71.92 249.29 71.42 248.33 70.74C247.37 70.02 246.61 69.1 246.05 67.98C245.53 66.86 245.27 65.5 245.27 63.9V50.04H239.51V42.84H245.27V34.2H254.27V42.84H262.19V50.04ZM268.264 29.52H296.764V38.16H277.624V46.8H295.324V55.44H277.624V72H268.264V29.52ZM302.45 42.84H311.45V72H302.45V42.84ZM301.73 33.66C301.73 32.22 302.23 31 303.23 30C304.27 28.96 305.51 28.44 306.95 28.44C308.39 28.44 309.61 28.96 310.61 30C311.65 31 312.17 32.22 312.17 33.66C312.17 35.1 311.65 36.34 310.61 37.38C309.61 38.38 308.39 38.88 306.95 38.88C305.51 38.88 304.27 38.38 303.23 37.38C302.23 36.34 301.73 35.1 301.73 33.66ZM317.916 42.84H326.556V46.8H326.676C326.956 46.24 327.356 45.68 327.876 45.12C328.396 44.56 329.016 44.06 329.736 43.62C330.456 43.18 331.276 42.82 332.196 42.54C333.116 42.26 334.116 42.12 335.196 42.12C337.476 42.12 339.316 42.48 340.716 43.2C342.116 43.88 343.196 44.84 343.956 46.08C344.756 47.32 345.296 48.78 345.576 50.46C345.856 52.14 345.996 53.96 345.996 55.92V72H336.996V57.72C336.996 56.88 336.956 56.02 336.876 55.14C336.836 54.22 336.656 53.38 336.336 52.62C336.056 51.86 335.596 51.24 334.956 50.76C334.356 50.28 333.476 50.04 332.316 50.04C331.156 50.04 330.216 50.26 329.496 50.7C328.776 51.1 328.216 51.66 327.816 52.38C327.456 53.06 327.216 53.84 327.096 54.72C326.976 55.6 326.916 56.52 326.916 57.48V72H317.916V42.84ZM382.969 72H374.689V68.16H374.569C374.209 68.68 373.729 69.22 373.129 69.78C372.569 70.3 371.889 70.78 371.089 71.22C370.329 71.66 369.469 72.02 368.509 72.3C367.589 72.58 366.629 72.72 365.629 72.72C363.469 72.72 361.509 72.36 359.749 71.64C357.989 70.88 356.469 69.84 355.189 68.52C353.949 67.16 352.989 65.56 352.309 63.72C351.629 61.88 351.289 59.86 351.289 57.66C351.289 55.62 351.589 53.68 352.189 51.84C352.829 49.96 353.709 48.3 354.829 46.86C355.989 45.42 357.389 44.28 359.029 43.44C360.669 42.56 362.529 42.12 364.609 42.12C366.489 42.12 368.229 42.42 369.829 43.02C371.469 43.58 372.809 44.56 373.849 45.96H373.969V26.64H382.969V72ZM374.689 57.42C374.689 55.22 374.049 53.44 372.769 52.08C371.529 50.72 369.769 50.04 367.489 50.04C365.209 50.04 363.429 50.72 362.149 52.08C360.909 53.44 360.289 55.22 360.289 57.42C360.289 59.62 360.909 61.4 362.149 62.76C363.429 64.12 365.209 64.8 367.489 64.8C369.769 64.8 371.529 64.12 372.769 62.76C374.049 61.4 374.689 59.62 374.689 57.42ZM417.762 66.96C416.322 68.8 414.502 70.22 412.302 71.22C410.102 72.22 407.822 72.72 405.462 72.72C403.222 72.72 401.102 72.36 399.102 71.64C397.142 70.92 395.422 69.9 393.942 68.58C392.502 67.22 391.362 65.6 390.522 63.72C389.682 61.84 389.262 59.74 389.262 57.42C389.262 55.1 389.682 53 390.522 51.12C391.362 49.24 392.502 47.64 393.942 46.32C395.422 44.96 397.142 43.92 399.102 43.2C401.102 42.48 403.222 42.12 405.462 42.12C407.542 42.12 409.422 42.48 411.102 43.2C412.822 43.92 414.262 44.96 415.422 46.32C416.622 47.64 417.542 49.24 418.182 51.12C418.822 53 419.142 55.1 419.142 57.42V60.24H398.262C398.622 61.96 399.402 63.34 400.602 64.38C401.802 65.38 403.282 65.88 405.042 65.88C406.522 65.88 407.762 65.56 408.762 64.92C409.802 64.24 410.702 63.38 411.462 62.34L417.762 66.96ZM410.142 54.12C410.182 52.6 409.682 51.3 408.642 50.22C407.602 49.14 406.262 48.6 404.622 48.6C403.622 48.6 402.742 48.76 401.982 49.08C401.222 49.4 400.562 49.82 400.002 50.34C399.482 50.82 399.062 51.4 398.742 52.08C398.462 52.72 398.302 53.4 398.262 54.12H410.142ZM424.616 42.84H433.616V47.52H433.736C434.696 45.72 435.836 44.38 437.156 43.5C438.476 42.58 440.136 42.12 442.136 42.12C442.656 42.12 443.176 42.14 443.696 42.18C444.216 42.22 444.696 42.3 445.136 42.42V50.64C444.496 50.44 443.856 50.3 443.216 50.22C442.616 50.1 441.976 50.04 441.296 50.04C439.576 50.04 438.216 50.28 437.216 50.76C436.216 51.24 435.436 51.92 434.876 52.8C434.356 53.64 434.016 54.66 433.856 55.86C433.696 57.06 433.616 58.38 433.616 59.82V72H424.616V42.84Z" fill="white"/>
<g filter="url(#filter1_d)">
<ellipse cx="51.3883" cy="52.7767" rx="31.068" ry="26.0194" fill="#CA4646"/>
</g>
<g filter="url(#filter2_i)">
<path d="M52.165 37.6311C55.5463 33.5705 63.9995 26.6673 70.7621 31.5401C77.5247 36.4129 61.1818 37.6311 52.165 37.6311Z" fill="url(#paint0_linear)"/>
</g>
<path d="M51.9527 37.8376C48.292 42.121 39.3579 49.2385 32.907 43.4412C26.4562 37.6438 42.9163 37.2899 51.9527 37.8376Z" fill="url(#paint1_linear)"/>
<g filter="url(#filter3_i)">
<path d="M52.165 37.6311C46.074 35.1334 35.7193 30.0845 43.0285 29.8704C50.3377 29.6563 52.165 34.955 52.165 37.6311Z" fill="url(#paint2_linear)"/>
</g>
<path d="M52.1976 37.8397C58.3648 41.1397 68.7736 47.6356 61.072 47.2193C53.3704 46.8029 51.9468 40.7927 52.1976 37.8397Z" fill="url(#paint3_linear)"/>
<g filter="url(#filter4_d)">
<path d="M50.2233 37.631L51.7767 38.4077L53.7184 38.4078L55.6602 25.9806L52.9417 25.5922L50.2233 37.631Z" fill="url(#paint4_linear)"/>
</g>
<defs>
<filter id="filter0_d" x="6" y="9" width="90" height="90" filterUnits="userSpaceOnUse" color-interpolation-filters="sRGB">
<feFlood flood-opacity="0" result="BackgroundImageFix"/>
<feColorMatrix in="SourceAlpha" type="matrix" values="0 0 0 0 0 0 0 0 0 0 0 0 0 0 0 0 0 0 127 0"/>
<feOffset dy="2"/>
<feGaussianBlur stdDeviation="2.5"/>
<feColorMatrix type="matrix" values="0 0 0 0 0 0 0 0 0 0 0 0 0 0 0 0 0 0 0.25 0"/>
<feBlend mode="normal" in2="BackgroundImageFix" result="effect1_dropShadow"/>
<feBlend mode="normal" in="SourceGraphic" in2="effect1_dropShadow" result="shape"/>
</filter>
<filter id="filter1_d" x="15.3204" y="23.7573" width="72.1359" height="62.0388" filterUnits="userSpaceOnUse" color-interpolation-filters="sRGB">
<feFlood flood-opacity="0" result="BackgroundImageFix"/>
<feColorMatrix in="SourceAlpha" type="matrix" values="0 0 0 0 0 0 0 0 0 0 0 0 0 0 0 0 0 0 127 0"/>
<feMorphology radius="1" operator="dilate" in="SourceAlpha" result="effect1_dropShadow"/>
<feOffset dy="2"/>
<feGaussianBlur stdDeviation="2"/>
<feColorMatrix type="matrix" values="0 0 0 0 0 0 0 0 0 0 0 0 0 0 0 0 0 0 0.25 0"/>
<feBlend mode="normal" in2="BackgroundImageFix" result="effect1_dropShadow"/>
<feBlend mode="normal" in="SourceGraphic" in2="effect1_dropShadow" result="shape"/>
</filter>
<filter id="filter2_i" x="51.165" y="28.8641" width="21.1942" height="8.76699" filterUnits="userSpaceOnUse" color-interpolation-filters="sRGB">
<feFlood flood-opacity="0" result="BackgroundImageFix"/>
<feBlend mode="normal" in="SourceGraphic" in2="BackgroundImageFix" result="shape"/>
<feColorMatrix in="SourceAlpha" type="matrix" values="0 0 0 0 0 0 0 0 0 0 0 0 0 0 0 0 0 0 127 0" result="hardAlpha"/>
<feOffset dx="-1" dy="-1"/>
<feGaussianBlur stdDeviation="5"/>
<feComposite in2="hardAlpha" operator="arithmetic" k2="-1" k3="1"/>
<feColorMatrix type="matrix" values="0 0 0 0 0 0 0 0 0 0 0 0 0 0 0 0 0 0 0.2 0"/>
<feBlend mode="normal" in2="shape" result="effect1_innerShadow"/>
</filter>
<filter id="filter3_i" x="39.5146" y="28.8641" width="12.6505" height="8.76699" filterUnits="userSpaceOnUse" color-interpolation-filters="sRGB">
<feFlood flood-opacity="0" result="BackgroundImageFix"/>
<feBlend mode="normal" in="SourceGraphic" in2="BackgroundImageFix" result="shape"/>
<feColorMatrix in="SourceAlpha" type="matrix" values="0 0 0 0 0 0 0 0 0 0 0 0 0 0 0 0 0 0 127 0" result="hardAlpha"/>
<feOffset dx="-1" dy="-1"/>
<feGaussianBlur stdDeviation="2"/>
<feComposite in2="hardAlpha" operator="arithmetic" k2="-1" k3="1"/>
<feColorMatrix type="matrix" values="0 0 0 0 0 0 0 0 0 0 0 0 0 0 0 0 0 0 0.2 0"/>
<feBlend mode="normal" in2="shape" result="effect1_innerShadow"/>
</filter>
<filter id="filter4_d" x="45.4594" y="20.1886" width="17.0419" height="21.7315" filterUnits="userSpaceOnUse" color-interpolation-filters="sRGB">
<feFlood flood-opacity="0" result="BackgroundImageFix"/>
<feColorMatrix in="SourceAlpha" type="matrix" values="0 0 0 0 0 0 0 0 0 0 0 0 0 0 0 0 0 0 127 0"/>
<feOffset dx="1" dy="-1"/>
<feGaussianBlur stdDeviation="2"/>
<feColorMatrix type="matrix" values="0 0 0 0 0 0 0 0 0 0 0 0 0 0 0 0 0 0 0.25 0"/>
<feBlend mode="normal" in2="BackgroundImageFix" result="effect1_dropShadow"/>
<feBlend mode="normal" in="SourceGraphic" in2="effect1_dropShadow" result="shape"/>
</filter>
<linearGradient id="paint0_linear" x1="69.2524" y1="31.8059" x2="54.8835" y2="36.8544" gradientUnits="userSpaceOnUse">
<stop stop-color="#73AF79"/>
<stop offset="1" stop-color="#5A9660"/>
</linearGradient>
<linearGradient id="paint1_linear" x1="32.7475" y1="42.6797" x2="52.165" y2="38.0195" gradientUnits="userSpaceOnUse">
<stop stop-color="#73AF79"/>
<stop offset="1" stop-color="#5A9660"/>
</linearGradient>
<linearGradient id="paint2_linear" x1="40.5146" y1="29.8641" x2="50.2233" y2="37.6311" gradientUnits="userSpaceOnUse">
<stop stop-color="#73AF79"/>
<stop offset="1" stop-color="#5A9660"/>
</linearGradient>
<linearGradient id="paint3_linear" x1="62.6505" y1="47.3398" x2="52.9417" y2="38.4077" gradientUnits="userSpaceOnUse">
<stop stop-color="#73AF79"/>
<stop offset="1" stop-color="#5A9660"/>
</linearGradient>
<linearGradient id="paint4_linear" x1="55.2718" y1="22.0971" x2="52.165" y2="38.4078" gradientUnits="userSpaceOnUse">
<stop stop-color="#7DB983"/>
<stop offset="1" stop-color="#3C8443"/>
</linearGradient>
</defs>
</svg>
