<svg width="331" height="70" viewBox="0 0 331 70" fill="none" xmlns="http://www.w3.org/2000/svg">
<path d="M79.6814 17.14H101.056V23.62H86.7014V30.1H99.9764V36.58H86.7014V49H79.6814V17.14ZM125.931 45.22C124.851 46.6 123.486 47.665 121.836 48.415C120.186 49.165 118.476 49.54 116.706 49.54C115.026 49.54 113.436 49.27 111.936 48.73C110.466 48.19 109.176 47.425 108.066 46.435C106.986 45.415 106.131 44.2 105.501 42.79C104.871 41.38 104.556 39.805 104.556 38.065C104.556 36.325 104.871 34.75 105.501 33.34C106.131 31.93 106.986 30.73 108.066 29.74C109.176 28.72 110.466 27.94 111.936 27.4C113.436 26.86 115.026 26.59 116.706 26.59C118.266 26.59 119.676 26.86 120.936 27.4C122.226 27.94 123.306 28.72 124.176 29.74C125.076 30.73 125.766 31.93 126.246 33.34C126.726 34.75 126.966 36.325 126.966 38.065V40.18H111.306C111.576 41.47 112.161 42.505 113.061 43.285C113.961 44.035 115.071 44.41 116.391 44.41C117.501 44.41 118.431 44.17 119.181 43.69C119.961 43.18 120.636 42.535 121.206 41.755L125.931 45.22ZM120.216 35.59C120.246 34.45 119.871 33.475 119.091 32.665C118.311 31.855 117.306 31.45 116.076 31.45C115.326 31.45 114.666 31.57 114.096 31.81C113.526 32.05 113.031 32.365 112.611 32.755C112.221 33.115 111.906 33.55 111.666 34.06C111.456 34.54 111.336 35.05 111.306 35.59H120.216ZM144.796 46.255H144.706C143.956 47.425 142.951 48.265 141.691 48.775C140.461 49.285 139.156 49.54 137.776 49.54C136.756 49.54 135.766 49.39 134.806 49.09C133.876 48.82 133.051 48.4 132.331 47.83C131.611 47.26 131.041 46.555 130.621 45.715C130.201 44.875 129.991 43.9 129.991 42.79C129.991 41.53 130.216 40.465 130.666 39.595C131.146 38.725 131.776 38.005 132.556 37.435C133.366 36.865 134.281 36.43 135.301 36.13C136.321 35.8 137.371 35.56 138.451 35.41C139.561 35.26 140.656 35.17 141.736 35.14C142.846 35.11 143.866 35.095 144.796 35.095C144.796 33.895 144.361 32.95 143.491 32.26C142.651 31.54 141.646 31.18 140.476 31.18C139.366 31.18 138.346 31.42 137.416 31.9C136.516 32.35 135.706 32.98 134.986 33.79L131.386 30.1C132.646 28.93 134.116 28.06 135.796 27.49C137.476 26.89 139.216 26.59 141.016 26.59C142.996 26.59 144.616 26.845 145.876 27.355C147.166 27.835 148.186 28.555 148.936 29.515C149.716 30.475 150.256 31.66 150.556 33.07C150.856 34.45 151.006 36.055 151.006 37.885V49H144.796V46.255ZM143.131 39.415C142.621 39.415 141.976 39.445 141.196 39.505C140.446 39.535 139.711 39.655 138.991 39.865C138.301 40.075 137.701 40.39 137.191 40.81C136.711 41.23 136.471 41.815 136.471 42.565C136.471 43.375 136.816 43.975 137.506 44.365C138.196 44.755 138.916 44.95 139.666 44.95C140.326 44.95 140.956 44.86 141.556 44.68C142.186 44.5 142.741 44.245 143.221 43.915C143.701 43.585 144.076 43.165 144.346 42.655C144.646 42.145 144.796 41.545 144.796 40.855V39.415H143.131ZM167.616 33.565C166.626 32.335 165.321 31.72 163.701 31.72C163.131 31.72 162.576 31.855 162.036 32.125C161.496 32.395 161.226 32.86 161.226 33.52C161.226 34.06 161.496 34.465 162.036 34.735C162.606 34.975 163.311 35.2 164.151 35.41C165.021 35.59 165.936 35.8 166.896 36.04C167.886 36.25 168.801 36.595 169.641 37.075C170.511 37.555 171.216 38.215 171.756 39.055C172.326 39.865 172.611 40.96 172.611 42.34C172.611 43.75 172.296 44.92 171.666 45.85C171.066 46.75 170.286 47.485 169.326 48.055C168.366 48.595 167.286 48.97 166.086 49.18C164.886 49.42 163.701 49.54 162.531 49.54C161.001 49.54 159.456 49.33 157.896 48.91C156.336 48.46 155.016 47.68 153.936 46.57L158.031 42.025C158.661 42.805 159.351 43.405 160.101 43.825C160.881 44.215 161.781 44.41 162.801 44.41C163.581 44.41 164.286 44.305 164.916 44.095C165.546 43.855 165.861 43.435 165.861 42.835C165.861 42.265 165.576 41.845 165.006 41.575C164.466 41.275 163.761 41.035 162.891 40.855C162.051 40.645 161.136 40.435 160.146 40.225C159.186 39.985 158.271 39.64 157.401 39.19C156.561 38.74 155.856 38.11 155.286 37.3C154.746 36.46 154.476 35.35 154.476 33.97C154.476 32.68 154.731 31.57 155.241 30.64C155.781 29.71 156.471 28.945 157.311 28.345C158.181 27.745 159.171 27.31 160.281 27.04C161.391 26.74 162.516 26.59 163.656 26.59C165.096 26.59 166.551 26.8 168.021 27.22C169.491 27.64 170.736 28.39 171.756 29.47L167.616 33.565ZM190.966 32.53H185.026V39.82C185.026 40.42 185.056 40.975 185.116 41.485C185.176 41.965 185.311 42.385 185.521 42.745C185.731 43.105 186.046 43.39 186.466 43.6C186.916 43.78 187.501 43.87 188.221 43.87C188.581 43.87 189.046 43.84 189.616 43.78C190.216 43.69 190.666 43.51 190.966 43.24V48.865C190.216 49.135 189.436 49.315 188.626 49.405C187.816 49.495 187.021 49.54 186.241 49.54C185.101 49.54 184.051 49.42 183.091 49.18C182.131 48.94 181.291 48.565 180.571 48.055C179.851 47.515 179.281 46.825 178.861 45.985C178.471 45.145 178.276 44.125 178.276 42.925V32.53H173.956V27.13H178.276V20.65H185.026V27.13H190.966V32.53ZM195.521 17.14H216.896V23.62H202.541V30.1H215.816V36.58H202.541V49H195.521V17.14ZM221.161 27.13H227.911V49H221.161V27.13ZM220.621 20.245C220.621 19.165 220.996 18.25 221.746 17.5C222.526 16.72 223.456 16.33 224.536 16.33C225.616 16.33 226.531 16.72 227.281 17.5C228.061 18.25 228.451 19.165 228.451 20.245C228.451 21.325 228.061 22.255 227.281 23.035C226.531 23.785 225.616 24.16 224.536 24.16C223.456 24.16 222.526 23.785 221.746 23.035C220.996 22.255 220.621 21.325 220.621 20.245ZM232.761 27.13H239.241V30.1H239.331C239.541 29.68 239.841 29.26 240.231 28.84C240.621 28.42 241.086 28.045 241.626 27.715C242.166 27.385 242.781 27.115 243.471 26.905C244.161 26.695 244.911 26.59 245.721 26.59C247.431 26.59 248.811 26.86 249.861 27.4C250.911 27.91 251.721 28.63 252.291 29.56C252.891 30.49 253.296 31.585 253.506 32.845C253.716 34.105 253.821 35.47 253.821 36.94V49H247.071V38.29C247.071 37.66 247.041 37.015 246.981 36.355C246.951 35.665 246.816 35.035 246.576 34.465C246.366 33.895 246.021 33.43 245.541 33.07C245.091 32.71 244.431 32.53 243.561 32.53C242.691 32.53 241.986 32.695 241.446 33.025C240.906 33.325 240.486 33.745 240.186 34.285C239.916 34.795 239.736 35.38 239.646 36.04C239.556 36.7 239.511 37.39 239.511 38.11V49H232.761V27.13ZM281.55 49H275.34V46.12H275.25C274.98 46.51 274.62 46.915 274.17 47.335C273.75 47.725 273.24 48.085 272.64 48.415C272.07 48.745 271.425 49.015 270.705 49.225C270.015 49.435 269.295 49.54 268.545 49.54C266.925 49.54 265.455 49.27 264.135 48.73C262.815 48.16 261.675 47.38 260.715 46.39C259.785 45.37 259.065 44.17 258.555 42.79C258.045 41.41 257.79 39.895 257.79 38.245C257.79 36.715 258.015 35.26 258.465 33.88C258.945 32.47 259.605 31.225 260.445 30.145C261.315 29.065 262.365 28.21 263.595 27.58C264.825 26.92 266.22 26.59 267.78 26.59C269.19 26.59 270.495 26.815 271.695 27.265C272.925 27.685 273.93 28.42 274.71 29.47H274.8V14.98H281.55V49ZM275.34 38.065C275.34 36.415 274.86 35.08 273.9 34.06C272.97 33.04 271.65 32.53 269.94 32.53C268.23 32.53 266.895 33.04 265.935 34.06C265.005 35.08 264.54 36.415 264.54 38.065C264.54 39.715 265.005 41.05 265.935 42.07C266.895 43.09 268.23 43.6 269.94 43.6C271.65 43.6 272.97 43.09 273.9 42.07C274.86 41.05 275.34 39.715 275.34 38.065ZM307.645 45.22C306.565 46.6 305.2 47.665 303.55 48.415C301.9 49.165 300.19 49.54 298.42 49.54C296.74 49.54 295.15 49.27 293.65 48.73C292.18 48.19 290.89 47.425 289.78 46.435C288.7 45.415 287.845 44.2 287.215 42.79C286.585 41.38 286.27 39.805 286.27 38.065C286.27 36.325 286.585 34.75 287.215 33.34C287.845 31.93 288.7 30.73 289.78 29.74C290.89 28.72 292.18 27.94 293.65 27.4C295.15 26.86 296.74 26.59 298.42 26.59C299.98 26.59 301.39 26.86 302.65 27.4C303.94 27.94 305.02 28.72 305.89 29.74C306.79 30.73 307.48 31.93 307.96 33.34C308.44 34.75 308.68 36.325 308.68 38.065V40.18H293.02C293.29 41.47 293.875 42.505 294.775 43.285C295.675 44.035 296.785 44.41 298.105 44.41C299.215 44.41 300.145 44.17 300.895 43.69C301.675 43.18 302.35 42.535 302.92 41.755L307.645 45.22ZM301.93 35.59C301.96 34.45 301.585 33.475 300.805 32.665C300.025 31.855 299.02 31.45 297.79 31.45C297.04 31.45 296.38 31.57 295.81 31.81C295.24 32.05 294.745 32.365 294.325 32.755C293.935 33.115 293.62 33.55 293.38 34.06C293.17 34.54 293.05 35.05 293.02 35.59H301.93ZM312.785 27.13H319.535V30.64H319.625C320.345 29.29 321.2 28.285 322.19 27.625C323.18 26.935 324.425 26.59 325.925 26.59C326.315 26.59 326.705 26.605 327.095 26.635C327.485 26.665 327.845 26.725 328.175 26.815V32.98C327.695 32.83 327.215 32.725 326.735 32.665C326.285 32.575 325.805 32.53 325.295 32.53C324.005 32.53 322.985 32.71 322.235 33.07C321.485 33.43 320.9 33.94 320.48 34.6C320.09 35.23 319.835 35.995 319.715 36.895C319.595 37.795 319.535 38.785 319.535 39.865V49H312.785V27.13Z" fill="black"/>
<g filter="url(#filter0_d)">
<rect x="5" y="3" width="60" height="60" rx="20" fill="#ECEAEA"/>
</g>
<g filter="url(#filter1_d)">
<ellipse cx="34.6447" cy="33.6599" rx="23.301" ry="19.5146" fill="#CA4646"/>
</g>
<g filter="url(#filter2_i)">
<path d="M35.2272 22.3006C37.7632 19.2551 44.1031 14.0778 49.1751 17.7324C54.247 21.387 41.9898 22.3006 35.2272 22.3006Z" fill="url(#paint0_linear)"/>
</g>
<path d="M35.068 22.4555C32.3225 25.668 25.6219 31.0062 20.7837 26.6582C15.9456 22.3102 28.2907 22.0447 35.068 22.4555Z" fill="url(#paint1_linear)"/>
<g filter="url(#filter3_i)">
<path d="M35.2272 22.3006C30.6589 20.4274 22.8929 16.6407 28.3748 16.4801C33.8567 16.3195 35.2272 20.2935 35.2272 22.3006Z" fill="url(#paint2_linear)"/>
</g>
<path d="M35.2517 22.4571C39.877 24.9321 47.6837 29.8041 41.9075 29.4918C36.1312 29.1795 35.0635 24.6719 35.2517 22.4571Z" fill="url(#paint3_linear)"/>
<g filter="url(#filter4_d)">
<path d="M33.7709 22.3006L34.936 22.8831L36.3923 22.8831L37.8486 13.5627L35.8098 13.2715L33.7709 22.3006Z" fill="url(#paint4_linear)"/>
</g>
<defs>
<filter id="filter0_d" x="0" y="0" width="70" height="70" filterUnits="userSpaceOnUse" color-interpolation-filters="sRGB">
<feFlood flood-opacity="0" result="BackgroundImageFix"/>
<feColorMatrix in="SourceAlpha" type="matrix" values="0 0 0 0 0 0 0 0 0 0 0 0 0 0 0 0 0 0 127 0"/>
<feOffset dy="2"/>
<feGaussianBlur stdDeviation="2.5"/>
<feColorMatrix type="matrix" values="0 0 0 0 0 0 0 0 0 0 0 0 0 0 0 0 0 0 0.5 0"/>
<feBlend mode="normal" in2="BackgroundImageFix" result="effect1_dropShadow"/>
<feBlend mode="normal" in="SourceGraphic" in2="effect1_dropShadow" result="shape"/>
</filter>
<filter id="filter1_d" x="6.34372" y="11.1453" width="56.6019" height="49.0291" filterUnits="userSpaceOnUse" color-interpolation-filters="sRGB">
<feFlood flood-opacity="0" result="BackgroundImageFix"/>
<feColorMatrix in="SourceAlpha" type="matrix" values="0 0 0 0 0 0 0 0 0 0 0 0 0 0 0 0 0 0 127 0"/>
<feMorphology radius="1" operator="dilate" in="SourceAlpha" result="effect1_dropShadow"/>
<feOffset dy="2"/>
<feGaussianBlur stdDeviation="2"/>
<feColorMatrix type="matrix" values="0 0 0 0 0 0 0 0 0 0 0 0 0 0 0 0 0 0 0.25 0"/>
<feBlend mode="normal" in2="BackgroundImageFix" result="effect1_dropShadow"/>
<feBlend mode="normal" in="SourceGraphic" in2="effect1_dropShadow" result="shape"/>
</filter>
<filter id="filter2_i" x="34.2272" y="15.4754" width="16.1456" height="6.82524" filterUnits="userSpaceOnUse" color-interpolation-filters="sRGB">
<feFlood flood-opacity="0" result="BackgroundImageFix"/>
<feBlend mode="normal" in="SourceGraphic" in2="BackgroundImageFix" result="shape"/>
<feColorMatrix in="SourceAlpha" type="matrix" values="0 0 0 0 0 0 0 0 0 0 0 0 0 0 0 0 0 0 127 0" result="hardAlpha"/>
<feOffset dx="-1" dy="-1"/>
<feGaussianBlur stdDeviation="5"/>
<feComposite in2="hardAlpha" operator="arithmetic" k2="-1" k3="1"/>
<feColorMatrix type="matrix" values="0 0 0 0 0 0 0 0 0 0 0 0 0 0 0 0 0 0 0.2 0"/>
<feBlend mode="normal" in2="shape" result="effect1_innerShadow"/>
</filter>
<filter id="filter3_i" x="25.4893" y="15.4754" width="9.73786" height="6.82524" filterUnits="userSpaceOnUse" color-interpolation-filters="sRGB">
<feFlood flood-opacity="0" result="BackgroundImageFix"/>
<feBlend mode="normal" in="SourceGraphic" in2="BackgroundImageFix" result="shape"/>
<feColorMatrix in="SourceAlpha" type="matrix" values="0 0 0 0 0 0 0 0 0 0 0 0 0 0 0 0 0 0 127 0" result="hardAlpha"/>
<feOffset dx="-1" dy="-1"/>
<feGaussianBlur stdDeviation="2"/>
<feComposite in2="hardAlpha" operator="arithmetic" k2="-1" k3="1"/>
<feColorMatrix type="matrix" values="0 0 0 0 0 0 0 0 0 0 0 0 0 0 0 0 0 0 0.2 0"/>
<feBlend mode="normal" in2="shape" result="effect1_innerShadow"/>
</filter>
<filter id="filter4_d" x="30.7709" y="8.27147" width="12.0777" height="17.6117" filterUnits="userSpaceOnUse" color-interpolation-filters="sRGB">
<feFlood flood-opacity="0" result="BackgroundImageFix"/>
<feColorMatrix in="SourceAlpha" type="matrix" values="0 0 0 0 0 0 0 0 0 0 0 0 0 0 0 0 0 0 127 0"/>
<feOffset dx="1" dy="-1"/>
<feGaussianBlur stdDeviation="2"/>
<feColorMatrix type="matrix" values="0 0 0 0 0 0 0 0 0 0 0 0 0 0 0 0 0 0 0.25 0"/>
<feBlend mode="normal" in2="BackgroundImageFix" result="effect1_dropShadow"/>
<feBlend mode="normal" in="SourceGraphic" in2="effect1_dropShadow" result="shape"/>
</filter>
<linearGradient id="paint0_linear" x1="48.0428" y1="17.9317" x2="37.2661" y2="21.7181" gradientUnits="userSpaceOnUse">
<stop stop-color="#73AF79"/>
<stop offset="1" stop-color="#5A9660"/>
</linearGradient>
<linearGradient id="paint1_linear" x1="20.6641" y1="26.0871" x2="35.2272" y2="22.5919" gradientUnits="userSpaceOnUse">
<stop stop-color="#73AF79"/>
<stop offset="1" stop-color="#5A9660"/>
</linearGradient>
<linearGradient id="paint2_linear" x1="26.4893" y1="16.4754" x2="33.7709" y2="22.3006" gradientUnits="userSpaceOnUse">
<stop stop-color="#73AF79"/>
<stop offset="1" stop-color="#5A9660"/>
</linearGradient>
<linearGradient id="paint3_linear" x1="43.0913" y1="29.5821" x2="35.8097" y2="22.8831" gradientUnits="userSpaceOnUse">
<stop stop-color="#73AF79"/>
<stop offset="1" stop-color="#5A9660"/>
</linearGradient>
<linearGradient id="paint4_linear" x1="37.5573" y1="10.6501" x2="35.2272" y2="22.8831" gradientUnits="userSpaceOnUse">
<stop stop-color="#7DB983"/>
<stop offset="1" stop-color="#3C8443"/>
</linearGradient>
</defs>
</svg>
